<svg xmlns="http://www.w3.org/2000/svg" width="256" height="256" viewBox="0 0 100 100"><path fill="#006cac" d="M28.18 23.92Q34.03 23.92 38.20 25.98Q42.38 28.05 44.55 31.83Q46.73 35.61 46.73 40.57L46.73 40.57Q46.73 45.54 44.55 49.25Q42.38 52.97 38.20 55.01Q34.03 57.05 28.18 57.05L28.18 57.05L17.85 57.05L17.85 70.10L28.40 70.10Q29.90 70.10 30.53 70.79Q31.17 71.47 31.17 73.09L31.17 73.09Q31.17 74.72 30.53 75.40Q29.90 76.08 28.40 76.08L28.40 76.08L4.14 76.08Q2.65 76.08 2.01 75.40Q1.37 74.72 1.37 73.09L1.37 73.09Q1.37 71.47 2.01 70.79Q2.65 70.10 4.14 70.10L4.14 70.10L11.26 70.10L11.26 29.90L4.14 29.90Q2.65 29.90 2.01 29.21Q1.37 28.53 1.37 26.91L1.37 26.91Q1.37 25.28 2.01 24.60Q2.65 23.92 4.14 23.92L4.14 23.92L28.18 23.92ZM17.85 29.90L17.85 51.08L27.26 51.08Q33.37 51.08 36.57 48.31Q39.78 45.54 39.78 40.57L39.78 40.57Q39.78 35.52 36.55 32.71Q33.32 29.90 27.26 29.90L27.26 29.90L17.85 29.90ZM93.26 22.95Q95.07 22.95 95.81 23.61Q96.56 24.27 96.56 25.81L96.56 25.81L96.56 35.92Q96.56 37.45 95.81 38.11Q95.07 38.77 93.26 38.77L93.26 38.77Q91.59 38.77 90.98 37.63L90.98 37.63Q88.87 33.63 85.05 31.54Q81.22 29.46 76.35 29.46L76.35 29.46Q71.51 29.46 68.85 31.70Q66.19 33.94 66.19 37.72L66.19 37.72Q66.19 39.52 67.12 40.75Q68.04 41.98 69.75 42.86L69.75 42.86Q71.29 43.65 73.36 44.16Q75.42 44.66 78.89 45.32L78.89 45.32Q82.67 46.07 84.89 46.57Q87.11 47.08 89.27 47.96L89.27 47.96Q93.66 49.76 96.14 52.99Q98.63 56.22 98.63 61.71L98.63 61.71Q98.63 66.28 96.47 69.73Q94.32 73.18 90.12 75.11Q85.93 77.05 80.04 77.05L80.04 77.05Q75.64 77.05 71.88 75.44Q68.13 73.84 65.36 70.76L65.36 70.76L65.36 74.19Q65.36 75.73 64.61 76.39Q63.86 77.05 62.06 77.05L62.06 77.05Q60.26 77.05 59.51 76.39Q58.77 75.73 58.77 74.19L58.77 74.19L58.77 61.01Q58.77 59.47 59.51 58.81Q60.26 58.15 62.06 58.15L62.06 58.15Q63.95 58.15 64.61 60.00L64.61 60.00Q66.41 65.10 70.35 67.82Q74.28 70.54 80.04 70.54L80.04 70.54Q85.66 70.54 88.67 68.13Q91.68 65.71 91.68 61.71L91.68 61.71Q91.68 58.94 90.30 57.21Q88.91 55.47 86.28 54.33L86.28 54.33Q84.61 53.58 82.63 53.12Q80.65 52.66 77.22 51.96L77.22 51.96Q73.62 51.25 71.18 50.64Q68.74 50.02 66.68 49.10L66.68 49.10Q63.16 47.52 61.21 44.81Q59.25 42.11 59.25 37.72L59.25 37.72Q59.25 33.19 61.43 29.85Q63.60 26.51 67.49 24.73Q71.38 22.95 76.35 22.95L76.35 22.95Q80.21 22.95 83.82 24.45Q87.42 25.94 89.97 28.49L89.97 28.49L89.97 25.81Q89.97 24.27 90.72 23.61Q91.46 22.95 93.26 22.95L93.26 22.95Z"></path></svg>